# xmcd
# 
# Track frame offsets:
#     150
#     7595
#     15055
#     22505
#     29250
#     36690
#     43840
#     51200
#     58590
#     65850
#     72640
#     79840
#     86810
#     94165
#     101385
#     108365
#     115087
#     122182
#     129337
#     136505
#     143607
#     150552
#     157275
#     163470
#     170862
#     178250
#     185342
#     192077
#     198927
#     205997
#     213137
#     220162
#     227362
#     234625
#     241885
#     249195
#     256542
#     263905
#     270912
#     278082
#     284340
#     291457
#     298222
#     305000
#     311727
#     319182
#     326165
#     333402
#     340795
#     347892
# 
# Disc length: 4734
# 
# Revision: 9
# Processed by: cddbd v1.5.2PL0 Copyright (c) Steve Scherf et al.
# Submitted via: BonkEnc v1.0.8
# 
DISCID=e3127c32
DTITLE=Various Artist - BEST BLUE NOTE 100 DISC 1
DYEAR=2005
DGENRE=Jazz
TTITLE0=SONNY CLARK-COOL STRUTTIN'
TTITLE1=CANNONBALL ADDERLEY feat. MILES DAVIS-AUTUMN LEAVES
TTITLE2=ART BLAKEY&THE JAZZ MESSENGERS-MOANIN'
TTITLE3=JOHN COLTRANE-BLUE TRAIN
TTITLE4=HERBIE HANCOCK-MAIDEN VOYAGE
TTITLE5=BUD POWELL-CLEOPATRA'S DREAM
TTITLE6=PAUL CHAMBERS-YOU'D BE SO NICE TO COME HOME TO
TTITLE7=LEE MORGAN-THE SIDEWINDER
TTITLE8=KENNY BURRELL-CHITTLINS CON CARNE
TTITLE9=SONNY ROLLINS-OLD DEVIL MOON
TTITLE10=ART BLAKEY-SPLIT KICK
TTITLE11=JACKIE McLEAN-WHAT'S NEW
TTITLE12=LEE MORGAN-I REMEMBER CLIFFORD
TTITLE13=SONNY CLARK-SOFTLY,AS IN A MORNING SUNRISE
TTITLE14=HERBIE HANCOCK-RIOT
TTITLE15=LEE MORGAN-CANDY
TTITLE16=MILES DAVIS-DEAR OLD STOCKHOLM
TTITLE17=BUD POWELL-BOUNCING WITH BUD
TTITLE18=TINA BROOKS-TRUE BLUE
TTITLE19=HANK MOBLEY-RECADO BOSSA NOVA
TTITLE20=HORACE SILVER-BLOWIN'THE BLUES AWAY
TTITLE21=CLIFFORD BROWN-HYMN OF THE ORIENT
TTITLE22=ART BLAKEY and THE JAZZ MESSENGERS-A NIGHT IN TUNISIA
TTITLE23=HANK MOBLEY-REMEMBER
TTITLE24=THAD JONES-APARIL IN PARIS
TTITLE25=KENNY DORHAM-MEXICO CITY
TTITLE26=ART BLAKEY-WEE DOT
TTITLE27=DUKE JORDAN-FLIGHT TO JORDAN
TTITLE28=MILES DAVIS-WEIRDO
TTITLE29=BOBBY HUTCHERSON-MAIDEN VOYAGE
TTITLE30=LEE MORGAN-JUST ONE OF THOSE THINGS
TTITLE31=LOU DONALDSON-ALLIGATOR BOGALOO
TTITLE32=THELONIOUS MONK-'ROUND MIDNIGHT
TTITLE33=HORACE SILVER-SENOR BLUES
TTITLE34=IKE QUEBEC-LOIE
TTITLE35=HERBIE HANCOCK-WATERMELON MAN
TTITLE36=TINA BROOKS-BACK TO THE TRACKS
TTITLE37=FREDDIE HUBBARD-OPEN SESAME
TTITLE38=JUTTA HIPP-DEAR OLD STOCKHOLM
TTITLE39=DEXTER GORDON-SCRAPPLE FROM THE APPLE
TTITLE40=SONNY ROLLINS-POOR BUTTERFLY
TTITLE41=HANK MOBLEY-ROLL CALL
TTITLE42=SONNY ROLLINS-ASIATIC RAES
TTITLE43=KENNY BURRELL-THIS TIME THE DREAMS ON ME
TTITLE44=DONALD BYRD-FUEGO
TTITLE45=LOU DONALDSON-BLUES WALK
TTITLE46=KENNY DORHAM-AFRODISIA
TTITLE47=HORACE SILVER-SOULVILLE
TTITLE48=JUTTA HIPP with ZOOT SIMS-VIOLETS FOR YOUR FURS
TTITLE49=BUD POWELL-POLKA DOTS AND MOONBEAMS
EXTD=YEAR: 2005 ID3G: 8
EXTT0=
EXTT1=
EXTT2=
EXTT3=
EXTT4=
EXTT5=
EXTT6=
EXTT7=
EXTT8=
EXTT9=
EXTT10=
EXTT11=
EXTT12=
EXTT13=
EXTT14=
EXTT15=
EXTT16=
EXTT17=
EXTT18=
EXTT19=
EXTT20=
EXTT21=
EXTT22=
EXTT23=
EXTT24=
EXTT25=
EXTT26=
EXTT27=
EXTT28=
EXTT29=
EXTT30=
EXTT31=
EXTT32=
EXTT33=
EXTT34=
EXTT35=
EXTT36=
EXTT37=
EXTT38=
EXTT39=
EXTT40=
EXTT41=
EXTT42=
EXTT43=
EXTT44=
EXTT45=
EXTT46=
EXTT47=
EXTT48=
EXTT49=
PLAYORDER=
